<?xml version="1.0" encoding="UTF-8"?>
<!DOCTYPE svg PUBLIC "-//W3C//DTD SVG 1.1//EN" "http://www.w3.org/Graphics/SVG/1.1/DTD/svg11.dtd">
<!-- Creator: CorelDRAW 2021 (64 Bit) -->
<svg xmlns="http://www.w3.org/2000/svg" xml:space="preserve" width="805px" height="529px" version="1.1" shape-rendering="geometricPrecision" text-rendering="geometricPrecision" image-rendering="optimizeQuality" fill-rule="evenodd" clip-rule="evenodd"
viewBox="0 0 805 529.108"
 xmlns:xlink="http://www.w3.org/1999/xlink"
 xmlns:xodm="http://www.corel.com/coreldraw/odm/2003">
 <g id="Camada_x0020_1">
  <metadata id="CorelCorpID_0Corel-Layer"/>
  <g id="_2617943567328">
   <path fill="#1D1D1C" d="M766.001 193.719c-50.307,-31.618 -281.583,-77.786 -347.681,-58.536 -9.262,92.341 265.555,240.192 361.667,154.001 33.015,-29.608 14.161,-77.775 -13.986,-95.465z"/>
   <path fill="#1D1D1C" d="M381.307 135.183c-67.083,-19.606 -305.959,28.018 -352.364,61.539 -25.127,18.15 -39.946,64.982 -9.303,92.462 97.607,87.532 371.289,-64.16 361.667,-154.001z"/>
   <path fill="#92F20C" d="M302.76 316.616c-1.828,88.807 9.572,204.3 97.053,204.3 87.167,0 99.261,-114.763 96.399,-203.734 -70.039,47.661 -124.757,46.39 -193.452,-0.566z"/>
   <path fill="#1D1D1C" d="M305.396 276.632c28.211,63.028 125.074,78.387 171.659,30.833 38.648,-39.456 6.05,-48.495 -19.659,-73.151 -25.438,-24.396 -36.37,-43.442 -57.583,-67.354 -17.729,19.986 -23.367,32.804 -46.185,55.883 -38.275,38.712 -37.881,26.505 -48.232,53.789z"/>
   <path fill="#1D1D1C" d="M361.371 109.373c44.226,12.666 31.412,13.204 77.365,0.62 -11.43,-59.842 -66.43,-59.431 -77.365,-0.62z"/>
   <path fill="#1D1D1C" d="M479.702 31.656c-26.959,-32.132 -51.984,4.557 -52.659,16.705 -0.994,17.856 7.507,7.259 34.969,-7.109l11.761 -6.098c1.491,-0.794 4.037,-2.2 5.929,-3.498z"/>
   <path fill="#1D1D1C" d="M319.925 31.656l23.473 11.994c64.167,33.829 14.922,-17.788 10.688,-20.383 -29.932,-18.352 -22.771,0.497 -34.161,8.389z"/>
  </g>
 </g>
</svg>
